<svg width="89" height="55" viewBox="0 0 89 55" fill="none" xmlns="http://www.w3.org/2000/svg">
<path d="M35.7902 24.6814C42.4053 26.5097 45.6359 31.5374 45.6359 38.241C45.6359 49.2105 36.4055 53.9335 26.406 53.9335H0.0996094V0H25.7907C35.021 0 43.1744 2.59003 43.1744 13.4072C43.1744 18.7396 40.5592 22.2438 35.7902 24.6814ZM11.9452 9.14127V21.7867H24.0984C28.4059 21.7867 31.4827 19.9585 31.4827 15.3878C31.4827 10.3601 27.6367 9.14127 23.3293 9.14127H11.9452ZM24.8676 44.7922C29.6366 44.7922 33.6365 43.1163 33.6365 37.6316C33.6365 32.1468 30.4058 29.8615 25.0215 29.8615H11.9452V44.7922H24.8676ZM79.9419 8.07479H57.943V2.74238H79.9419V8.07479ZM88.7107 35.0416C88.7107 35.651 88.5569 36.4127 88.5569 37.0222H60.0967C60.0967 43.2687 63.4812 46.9252 69.7886 46.9252C73.0192 46.9252 77.3267 45.2493 78.4035 41.8975H87.9415C85.0186 50.7341 78.865 55 69.4809 55C57.0199 55 49.1742 46.6205 49.1742 34.4321C49.1742 22.7008 57.3276 13.7119 69.4809 13.7119C81.788 13.7119 88.7107 23.4626 88.7107 35.0416ZM60.0967 30.1662H77.7882C77.3266 24.9862 74.5575 21.9391 69.0194 21.9391C63.9427 21.9391 60.4044 25.1385 60.0967 30.1662Z" fill="#333333"/>
</svg>
