<svg width="71" height="55" viewBox="0 0 71 55" fill="none" xmlns="http://www.w3.org/2000/svg">
<path d="M7.22883 55C5.30616 55 3.66315 54.3126 2.2998 52.972C0.936457 51.6314 0.237305 50.0156 0.237305 48.125V6.875C0.237305 4.98438 0.936457 3.36884 2.2998 2.02822C3.66315 0.687592 5.30616 0 7.22883 0H63.161C65.0837 0 66.7267 0.687592 68.0901 2.02822C69.4534 3.36884 70.1526 4.98438 70.1526 6.875V48.125C70.1526 50.0156 69.4534 51.6314 68.0901 52.972C66.7267 54.3126 65.0837 55 63.161 55H7.22883ZM35.1949 30.9375L7.22883 13.75V48.125H63.161V13.75L35.1949 30.9375ZM35.1949 24.0625L63.161 6.875H7.22883L35.1949 24.0625Z" fill="#333333"/>
</svg>
