<svg width="100" height="55" viewBox="0 0 100 55" fill="none" xmlns="http://www.w3.org/2000/svg">
<path d="M49.6653 0.20773L40.7413 25.5612L40.7814 25.5707L29.9258 55C29.3587 54.9484 28.4565 54.9225 27.2193 54.9225C26.0336 54.9225 25.1572 54.9484 24.5902 55L4.87164 6.50704C4.20146 4.80282 3.42819 3.56338 2.55181 2.78873C1.67543 2.01408 0.824827 1.60094 0 1.54929V0C3.0931 0.154928 7.01103 0.232391 11.7538 0.232391C17.0636 0.232391 20.9815 0.154928 23.5076 0V1.54929C21.5486 1.65258 20.1567 1.88497 19.3319 2.24648C18.5071 2.60798 18.0947 3.33098 18.0947 4.41549C18.0947 5.29343 18.404 6.50704 19.0226 8.05634L32.6322 42.7606L42.1435 17.0423C43.587 13.0657 44.3087 9.91549 44.3087 7.59155C44.3087 5.52582 43.7416 4.02817 42.6075 3.09859C41.5249 2.16901 39.9268 1.65258 37.8132 1.54929V0C41.3187 0.154928 44.5407 0.232391 47.4791 0.232391C48.2516 0.232391 48.9804 0.224171 49.6653 0.20773Z" fill="#333333"/>
<path d="M46.1387 17.3889L61.847 54.9225H63.0842L81.7202 6.11972V46.6338C81.7202 48.5962 81.5655 50.0164 81.2562 50.8944C80.9469 51.7723 80.354 52.3662 79.4777 52.6761C78.6528 52.9859 77.3125 53.1925 75.4566 53.2958V54.8451C78.0858 54.6901 82.1584 54.6127 87.6744 54.6127C92.9327 54.6127 96.9795 54.6901 99.8148 54.8451V53.2958C98.1136 53.1925 96.8506 52.9859 96.0258 52.6761C95.2525 52.3662 94.7112 51.7723 94.4019 50.8944C94.1441 50.0164 94.0152 48.5962 94.0152 46.6338V8.21126C94.0152 6.24882 94.1441 4.82864 94.4019 3.9507C94.7112 3.07277 95.2525 2.47887 96.0258 2.16901C96.799 1.85915 98.0621 1.65258 99.8148 1.54929V0C96.9795 0.154928 92.9327 0.232391 87.6744 0.232391H82.1841L67.9559 37.7253L52.3357 0C52.3099 0.00117537 52.284 0.00234629 52.2581 0.00351275L46.1387 17.3889Z" fill="#333333"/>
</svg>
