<svg width="147" height="81" viewBox="0 0 147 81" fill="none" xmlns="http://www.w3.org/2000/svg">
<g filter="url(#filter0_b_66_1695)">
<path d="M73.1435 0.30593L60.0008 37.6447L60.0599 37.6586L44.0725 81C43.2374 80.9239 41.9087 80.8859 40.0866 80.8859C38.3404 80.8859 37.0498 80.9239 36.2146 81L7.17459 9.5831C6.18761 7.07324 5.04879 5.24789 3.75812 4.10704C2.46745 2.96619 1.21475 2.35774 0 2.28169V0C4.5553 0.228166 10.3253 0.342249 17.3101 0.342249C25.1301 0.342249 30.9001 0.228166 34.6203 0V2.28169C31.7352 2.4338 29.6854 2.77605 28.4706 3.30845C27.2559 3.84084 26.6485 4.90563 26.6485 6.50281C26.6485 7.79577 27.104 9.5831 28.0151 11.8648L48.0584 62.9747L62.0659 25.0986C64.1917 19.2423 65.2546 14.6028 65.2546 11.1803C65.2546 8.13803 64.4195 5.93239 62.7492 4.56338C61.1549 3.19436 58.8013 2.4338 55.6885 2.28169V0C60.8512 0.228166 65.5963 0.342249 69.9238 0.342249C71.0615 0.342249 72.1347 0.330143 73.1435 0.30593Z" fill="#333333"/>
<path d="M67.9498 25.6092L91.0837 80.8859H92.9059L120.352 9.01268V68.6789C120.352 71.569 120.124 73.6606 119.668 74.9535C119.213 76.2465 118.34 77.1211 117.049 77.5775C115.834 78.0338 113.86 78.338 111.127 78.4901V80.7718C114.999 80.5437 120.997 80.4296 129.12 80.4296C136.864 80.4296 142.824 80.5437 147 80.7718V78.4901C144.495 78.338 142.635 78.0338 141.42 77.5775C140.281 77.1211 139.484 76.2465 139.028 74.9535C138.649 73.6606 138.459 71.569 138.459 68.6789V12.093C138.459 9.20281 138.649 7.11126 139.028 5.81831C139.484 4.52535 140.281 3.6507 141.42 3.19437C142.559 2.73802 144.419 2.4338 147 2.28169V0C142.824 0.228166 136.864 0.342249 129.12 0.342249H121.035L100.08 55.5592L77.0762 0C77.0382 0.001731 77.0001 0.00345544 76.962 0.00517332L67.9498 25.6092Z" fill="#333333"/>
</g>
<defs>
<filter id="filter0_b_66_1695" x="-50" y="-50" width="247" height="181" filterUnits="userSpaceOnUse" color-interpolation-filters="sRGB">
<feFlood flood-opacity="0" result="BackgroundImageFix"/>
<feGaussianBlur in="BackgroundImageFix" stdDeviation="25"/>
<feComposite in2="SourceAlpha" operator="in" result="effect1_backgroundBlur_66_1695"/>
<feBlend mode="normal" in="SourceGraphic" in2="effect1_backgroundBlur_66_1695" result="shape"/>
</filter>
</defs>
</svg>
