<svg width="56" height="55" viewBox="0 0 56 55" fill="none" xmlns="http://www.w3.org/2000/svg">
<path d="M27.661 13.3203C35.3954 13.3203 41.7793 19.7042 41.7793 27.4386C41.7793 35.2958 35.3954 41.5569 27.661 41.5569C19.8039 41.5569 13.5427 35.2958 13.5427 27.4386C13.5427 19.7042 19.8039 13.3203 27.661 13.3203ZM27.661 36.6462C32.6945 36.6462 36.7458 32.5949 36.7458 27.4386C36.7458 22.4051 32.6945 18.3538 27.661 18.3538C22.5047 18.3538 18.4534 22.4051 18.4534 27.4386C18.4534 32.5949 22.6275 36.6462 27.661 36.6462ZM45.5851 12.8292C45.5851 14.6708 44.1119 16.144 42.2704 16.144C40.4289 16.144 38.9556 14.6708 38.9556 12.8292C38.9556 10.9877 40.4289 9.51451 42.2704 9.51451C44.1119 9.51451 45.5851 10.9877 45.5851 12.8292ZM54.9155 16.144C55.161 20.6864 55.161 34.3136 54.9155 38.856C54.6699 43.2757 53.6878 47.0815 50.4958 50.3962C47.3039 53.5882 43.3753 54.5703 38.9556 54.8158C34.4132 55.0614 20.786 55.0614 16.2436 54.8158C11.8239 54.5703 8.01814 53.5882 4.7034 50.3962C1.51144 47.0815 0.529297 43.2757 0.283761 38.856C0.0382254 34.3136 0.0382254 20.6864 0.283761 16.144C0.529297 11.7243 1.51144 7.79576 4.7034 4.6038C8.01814 1.41183 11.8239 0.429688 16.2436 0.184152C20.786 -0.0613839 34.4132 -0.0613839 38.9556 0.184152C43.3753 0.429688 47.3039 1.41183 50.4958 4.6038C53.6878 7.79576 54.6699 11.7243 54.9155 16.144ZM49.0226 43.644C50.4958 40.0837 50.1275 31.49 50.1275 27.4386C50.1275 23.51 50.4958 14.9163 49.0226 11.2333C48.0405 8.90067 46.1989 6.93638 43.8664 6.07701C40.1833 4.6038 31.5896 4.9721 27.661 4.9721C23.6097 4.9721 15.0159 4.6038 11.4556 6.07701C9.00028 7.05915 7.15876 8.90067 6.17662 11.2333C4.7034 14.9163 5.07171 23.51 5.07171 27.4386C5.07171 31.49 4.7034 40.0837 6.17662 43.644C7.15876 46.0993 9.00028 47.9408 11.4556 48.923C15.0159 50.3962 23.6097 50.0279 27.661 50.0279C31.5896 50.0279 40.1833 50.3962 43.8664 48.923C46.1989 47.9408 48.1632 46.0993 49.0226 43.644Z" fill="#333333"/>
</svg>
