<svg width="55" height="55" viewBox="0 0 55 55" fill="none" xmlns="http://www.w3.org/2000/svg">
<path fill-rule="evenodd" clip-rule="evenodd" d="M12.2527 54.3897V18.5928H1.16071V54.3897H12.2527ZM6.7067 13.551C10.236 13.551 13.093 10.694 13.093 7.1647C13.093 3.63544 10.236 0.610352 6.7067 0.610352C3.00937 0.610352 0.152344 3.63544 0.152344 7.1647C0.152344 10.694 3.00937 13.551 6.7067 13.551ZM54.0997 54.3897V34.7266C54.0997 25.1472 51.9149 17.5844 40.6549 17.5844C35.277 17.5844 31.5796 20.6095 30.0671 23.4666H29.899V18.5928H19.3112V54.3897H30.4032V36.7433C30.4032 32.0376 31.2435 27.5 37.1256 27.5C42.8397 27.5 42.8397 32.8779 42.8397 36.9114V54.3897H54.0997Z" fill="#333333"/>
</svg>
